<svg width="15" height="15" viewBox="0 0 15 15" fill="none" xmlns="http://www.w3.org/2000/svg">
<path d="M2.06817 7.75H10.2482L11.2482 2.75H1.24817C1.17504 2.75027 1.10286 2.76657 1.03672 2.79777C0.970573 2.82896 0.912078 2.87429 0.865356 2.93055C0.818633 2.9868 0.78482 3.05263 0.7663 3.12337C0.747779 3.19412 0.745003 3.26806 0.758167 3.34L1.57817 7.34C1.5973 7.45565 1.65725 7.56062 1.74716 7.63584C1.83706 7.71107 1.95095 7.75157 2.06817 7.75V7.75Z" stroke="#000001" stroke-width="1.5" stroke-linecap="round" stroke-linejoin="round"/>
<path d="M11.248 2.75L11.668 1.15C11.6911 1.03706 11.7525 0.93556 11.8418 0.862669C11.931 0.789778 12.0428 0.749976 12.158 0.75H13.748" stroke="#000001" stroke-width="1.5" stroke-linecap="round" stroke-linejoin="round"/>
<path d="M10.248 7.75L9.82805 9.85C9.80499 9.96294 9.74363 10.0644 9.65434 10.1373C9.56505 10.2102 9.45331 10.25 9.33805 10.25H3.24805" stroke="#000001" stroke-width="1.5" stroke-linecap="round" stroke-linejoin="round"/>
<path d="M3.74805 13.75C4.02419 13.75 4.24805 13.5261 4.24805 13.25C4.24805 12.9739 4.02419 12.75 3.74805 12.75C3.4719 12.75 3.24805 12.9739 3.24805 13.25C3.24805 13.5261 3.4719 13.75 3.74805 13.75Z" stroke="#000001" stroke-width="1.5" stroke-linecap="round" stroke-linejoin="round"/>
<path d="M8.74805 13.75C9.02419 13.75 9.24805 13.5261 9.24805 13.25C9.24805 12.9739 9.02419 12.75 8.74805 12.75C8.4719 12.75 8.24805 12.9739 8.24805 13.25C8.24805 13.5261 8.4719 13.75 8.74805 13.75Z" stroke="#000001" stroke-width="1.5" stroke-linecap="round" stroke-linejoin="round"/>
</svg>
