<?xml version="1.0" encoding="UTF-8"?>
<svg id="Layer_2" data-name="Layer 2" xmlns="http://www.w3.org/2000/svg" viewBox="0 0 137.42 131.75">
  <defs>
    <style>
      .cls-1 {
        fill: none;
      }

      .cls-2 {
        fill: #e5e5e5;
      }
    </style>
  </defs>
  <g id="Layer_1-2" data-name="Layer 1">
    <g>
      <path class="cls-2" d="M125.93,28.51c.18-.03.37-.07.55-.11,2.53-.58,4.75-2.09,6.35-4.14l1.39-1.78c.94-1.77,1.46-3.82,1.46-6.05,0-7.01-5.17-12.29-12.04-12.29-2.94,0-5.57.97-7.62,2.64l-.77.68c-1.72,1.68-2.93,3.89-3.42,6.45C99.88,4.89,84.84,0,68.71,0c-18.86,0-36.24,6.69-48.94,18.83C7.02,31.03,0,47.74,0,65.87s7.02,34.85,19.77,47.04c12.7,12.14,30.08,18.83,48.94,18.83s36.24-6.69,48.94-18.83c12.75-12.2,19.77-28.9,19.77-47.04,0-13.72-4.02-26.62-11.49-37.36Z"/>
      <g>
        <path d="M117.28,16.43c0-3.83,2.67-6.61,6.36-6.61s6.36,2.78,6.36,6.61-2.64,6.61-6.36,6.61-6.36-2.78-6.36-6.61ZM123.64,21.78c2.89,0,4.91-1.88,4.91-5.35s-2.02-5.35-4.91-5.35-4.91,1.88-4.91,5.35,2.1,5.35,4.91,5.35ZM120.93,12.45h2.75c1.63,0,2.85.98,2.85,2.46,0,.87-.43,1.59-1.16,2.02l1.45,3.11h-2.39l-1.16-2.67h-.22v2.67h-2.13v-7.59ZM123.53,15.71c.54,0,.83-.33.83-.76s-.33-.72-.83-.72h-.47v1.48h.47Z"/>
        <g>
          <path d="M44.97,57.91c-3.8,0-6.89-5.54-6.89-12.35s3.09-12.35,6.89-12.35,6.89,5.54,6.89,12.35-3.09,12.35-6.89,12.35Z"/>
          <path d="M92.92,57.91c-3.8,0-6.89-5.54-6.89-12.35s3.09-12.35,6.89-12.35,6.89,5.54,6.89,12.35-3.09,12.35-6.89,12.35Z"/>
          <g>
            <path class="cls-1" d="M92.92,31.55c-10.49,0-18.99,6.27-18.99,14.01s8.5,14.01,18.99,14.01,18.99-6.27,18.99-14.01-8.5-14.01-18.99-14.01Z"/>
            <ellipse class="cls-1" cx="44.5" cy="45.56" rx="18.99" ry="14.01"/>
            <path d="M68.71,5.68C32.72,5.68,5.68,31.63,5.68,65.88s27.05,60.2,63.03,60.2,63.03-25.96,63.03-60.2S104.7,5.68,68.71,5.68ZM25.51,45.56c0-7.73,8.5-14.01,18.99-14.01s18.99,6.27,18.99,14.01-8.5,14.01-18.99,14.01-18.99-6.27-18.99-14.01ZM86,72.96c-2.87,7.08-8.63,11.95-17.26,11.95s-14.65-4.72-17.34-11.98c-.34-.93.34-1.92,1.33-1.92h31.95c1,0,1.69,1.02,1.32,1.95ZM92.92,59.56c-10.49,0-18.99-6.27-18.99-14.01s8.5-14.01,18.99-14.01,18.99,6.27,18.99,14.01-8.5,14.01-18.99,14.01Z"/>
          </g>
        </g>
      </g>
    </g>
  </g>
</svg>