<svg width="77" height="73" viewBox="0 0 77 73" fill="none" xmlns="http://www.w3.org/2000/svg">
<path d="M23.8074 31.6453C21.505 31.6453 19.6328 28.2887 19.6328 24.1625C19.6328 20.0364 21.505 16.6797 23.8074 16.6797C26.1098 16.6797 27.9821 20.0364 27.9821 24.1625C27.9821 28.2887 26.1098 31.6453 23.8074 31.6453Z" fill="black"/>
<path d="M52.866 31.6453C50.5636 31.6453 48.6914 28.2887 48.6914 24.1625C48.6914 20.0364 50.5636 16.6797 52.866 16.6797C55.1684 16.6797 57.0407 20.0364 57.0407 24.1625C57.0407 28.2887 55.1684 31.6453 52.866 31.6453Z" fill="black"/>
<path d="M38.1897 0C16.3895 0 0 15.7291 0 36.475C0 57.2209 16.3895 72.95 38.1897 72.95C59.9898 72.95 76.3794 57.2209 76.3794 36.475C76.3794 15.7291 59.9959 0 38.1897 0ZM12.0149 24.1632C12.0149 19.4796 17.1651 15.6746 23.5209 15.6746C29.8768 15.6746 35.0269 19.4735 35.0269 24.1632C35.0269 28.8528 29.8768 32.6518 23.5209 32.6518C17.1651 32.6518 12.0149 28.8528 12.0149 24.1632ZM48.6717 40.7708C46.9328 45.0606 43.4428 48.0113 38.2139 48.0113C32.985 48.0113 29.3375 45.1514 27.7077 40.7526C27.5017 40.1891 27.9137 39.5893 28.5135 39.5893H47.8719C48.4778 39.5893 48.8959 40.2073 48.6717 40.7708ZM52.8584 32.6518C46.5026 32.6518 41.3525 28.8528 41.3525 24.1632C41.3525 19.4735 46.5026 15.6746 52.8584 15.6746C59.2143 15.6746 64.3644 19.4735 64.3644 24.1632C64.3644 28.8528 59.2143 32.6518 52.8584 32.6518Z" fill="black"/>
</svg>
