<svg width="18" height="18" viewBox="0 0 18 18" fill="none" xmlns="http://www.w3.org/2000/svg">
<path d="M3.84078 13.3528C5.3645 12.4915 7.12485 12 9 12C10.8752 12 12.6355 12.4915 14.1592 13.3528M11.25 7.5C11.25 8.74264 10.2426 9.75 9 9.75C7.75736 9.75 6.75 8.74264 6.75 7.5C6.75 6.25736 7.75736 5.25 9 5.25C10.2426 5.25 11.25 6.25736 11.25 7.5ZM15.75 9C15.75 12.7279 12.7279 15.75 9 15.75C5.27208 15.75 2.25 12.7279 2.25 9C2.25 5.27208 5.27208 2.25 9 2.25C12.7279 2.25 15.75 5.27208 15.75 9Z" stroke="black" stroke-width="1.5" stroke-linecap="round" stroke-linejoin="round"/>
</svg>
